<svg width="1920" height="141" viewBox="0 0 1920 141" fill="none" xmlns="http://www.w3.org/2000/svg">
<path d="M0 45.079L45.733 54.642C91.466 64.205 182.666 83.3319 274.666 92.8949C365.733 102.458 457.333 102.458 547.999 86.4949C639.999 70.7749 731.999 38.4949 822.666 25.9469C914.266 13.3949 1005.33 19.372 1097.33 38.678C1188.53 57.625 1280 89.9019 1372 83.327C1462.8 76.752 1554.67 32.5219 1645.33 13.2159C1737.2 -5.72605 1828 0.250946 1874.67 3.65795L1920 6.82495V140.712H0V45.079Z" fill="#54A8F2" fill-opacity="0.44"/>
<path d="M0 45.079L45.733 54.642C91.466 64.205 182.666 83.3319 274.666 92.8949C365.733 102.458 457.333 102.458 547.999 86.4949C639.999 70.7749 731.999 38.4949 822.666 25.9469C914.266 13.3949 1005.33 19.372 1097.33 38.678C1188.53 57.625 1280 89.9019 1372 83.327C1462.8 76.752 1554.67 32.5219 1645.33 13.2159C1737.2 -5.72605 1828 0.250946 1874.67 3.65795L1920 6.82495V140.712H0V45.079Z" fill="#00122E"/>
<path d="M394.057 99.42C374.631 99.42 354.537 98.849 334.332 97.72C314.961 96.64 294.887 95.02 274.667 92.893C240.882 89.38 203.634 84.185 163.959 77.45C135.826 72.675 106.108 67.071 73.105 60.319C83.025 56.534 92.782 53.105 102.105 50.125C113.141 46.598 124.034 43.55 134.481 41.066C145.917 38.3245 157.484 36.1588 169.138 34.577C181.018 32.9639 192.992 32.1364 204.982 32.1C207.782 32.1 210.593 32.15 213.334 32.249C222.64 32.6295 231.919 33.4974 241.134 34.849C249.872 36.102 258.978 37.771 268.973 39.949C287.542 44 306.421 49.249 324.673 54.317H324.681C341.437 58.972 358.764 63.786 375.766 67.65C384.926 69.732 393.26 71.38 401.245 72.688C410.212 74.158 418.525 75.168 426.658 75.776C433.014 76.248 439.68 76.487 446.472 76.487C461.769 76.3858 477.048 75.4042 492.232 73.547C507.532 71.778 523.032 69.389 538.015 67.079L538.135 67.06C553.108 64.751 568.591 62.36 583.79 60.604C598.89 58.7522 614.084 57.7725 629.296 57.67C632.908 57.67 636.506 57.738 639.99 57.87C648.358 58.17 656.97 58.859 666.318 59.978C647.479 64.752 627.395 69.799 607.194 74.448C585.268 79.5 565.9 83.442 548 86.5C523.08 90.886 497.225 94.194 471.152 96.332C446.186 98.381 420.247 99.42 394.057 99.42ZM1347.16 84.2H1347.15C1332.06 84.1663 1316.98 83.3227 1301.97 81.673C1287.79 80.158 1273.04 77.981 1256.86 75.016C1226.81 69.508 1196.32 62.048 1166.84 54.835H1166.82C1144.04 49.261 1120.48 43.497 1097.33 38.689C1086.49 36.414 1075.6 34.313 1064.94 32.444C1065.48 32.382 1066.06 32.317 1066.66 32.253C1075.96 31.2536 1085.31 30.7622 1094.66 30.781C1110.13 30.8854 1125.58 31.8988 1140.93 33.816C1156.41 35.643 1172.06 38.108 1187.2 40.492L1187.34 40.515C1202.47 42.898 1218.11 45.361 1233.46 47.178C1248.71 49.0878 1264.05 50.0982 1279.42 50.204H1280.59C1291.2 50.204 1302.04 49.641 1313.74 48.483C1324.15 47.452 1335.01 45.969 1346.93 43.949C1369.07 40.197 1391.56 35.119 1413.31 30.208C1439.59 24.275 1466.76 18.14 1493.33 14.351C1506.2 12.525 1519.47 11.144 1532.77 10.251C1545.66 9.37997 1558.94 8.93896 1572.26 8.93896C1584.31 8.93896 1596.72 9.29996 1609.15 10.012C1621.17 10.7 1633.57 11.737 1646 13.093L1645.33 13.23C1629.19 16.666 1611.51 21.23 1591.26 27.172C1573.19 32.472 1554.8 38.372 1537.01 44.072H1536.99C1509.91 52.746 1481.91 61.715 1454.39 68.832C1439.58 72.663 1426.08 75.667 1413.14 78.013C1399.53 80.5238 1385.8 82.2987 1372 83.33C1363.93 83.907 1355.57 84.2 1347.16 84.2Z" fill="#2397D4" fill-opacity="0.64"/>
</svg>
