<svg xmlns="http://www.w3.org/2000/svg" width="1920" height="140.712" viewBox="0 0 1920 140.712">
  <g id="Group_14" data-name="Group 14" transform="translate(0 -940.288)">
    <path id="wave" d="M0,129.66l45.733,9.563c45.733,9.563,136.933,28.69,228.933,38.253,91.067,9.563,182.667,9.563,273.333-6.4,92-15.72,184-48,274.667-60.548,91.6-12.552,182.667-6.575,274.667,12.731,91.2,18.947,182.667,51.224,274.667,44.649,90.8-6.575,182.667-50.805,273.333-70.111C1737.2,78.855,1828,84.832,1874.667,88.239L1920,91.406V225.293H0Z" transform="translate(0 855.707)" fill="rgba(84,168,242,0.44)"/>
    <path id="wave-2" data-name="wave" d="M0,129.66l45.733,9.563c45.733,9.563,136.933,28.69,228.933,38.253,91.067,9.563,182.667,9.563,273.333-6.4,92-15.72,184-48,274.667-60.548,91.6-12.552,182.667-6.575,274.667,12.731,91.2,18.947,182.667,51.224,274.667,44.649,90.8-6.575,182.667-50.805,273.333-70.111C1737.2,78.855,1828,84.832,1874.667,88.239L1920,91.406V225.293H0Z" transform="translate(0 855.707)" fill="#192a2e"/>
    <path id="Subtraction_1" data-name="Subtraction 1" d="M394.057,99.42c-19.426,0-39.52-.571-59.725-1.7-19.371-1.08-39.445-2.7-59.665-4.827-33.785-3.513-71.033-8.708-110.708-15.443-28.133-4.775-57.851-10.379-90.854-17.131,9.92-3.785,19.677-7.214,29-10.194,11.036-3.527,21.929-6.575,32.376-9.059a351.489,351.489,0,0,1,34.657-6.489A272.57,272.57,0,0,1,204.982,32.1c2.8,0,5.611.05,8.352.149a266.644,266.644,0,0,1,27.8,2.6c8.738,1.253,17.844,2.922,27.839,5.1,18.569,4.051,37.448,9.3,55.7,14.368l.008,0c16.756,4.655,34.083,9.469,51.085,13.333,9.16,2.082,17.494,3.73,25.479,5.038,8.967,1.47,17.28,2.48,25.413,3.088,6.356.472,13.022.711,19.814.711a398.638,398.638,0,0,0,45.76-2.94c15.3-1.769,30.8-4.158,45.783-6.468l.12-.019c14.973-2.309,30.456-4.7,45.655-6.456a395.761,395.761,0,0,1,45.506-2.934c3.612,0,7.21.068,10.694.2,8.368.3,16.98.989,26.328,2.108-18.839,4.774-38.923,9.821-59.124,14.47C585.268,79.5,565.9,83.442,548,86.5c-24.92,4.386-50.775,7.694-76.848,9.832C446.186,98.381,420.247,99.42,394.057,99.42ZM1347.163,84.2h-.009a422.053,422.053,0,0,1-45.184-2.527c-14.179-1.515-28.934-3.692-45.11-6.657-30.05-5.508-60.538-12.968-90.022-20.181l-.019,0c-22.783-5.574-46.342-11.338-69.484-16.146-10.841-2.275-21.74-4.376-32.4-6.245.541-.062,1.125-.127,1.728-.191a257.11,257.11,0,0,1,27.995-1.472,394.831,394.831,0,0,1,46.267,3.035c15.483,1.827,31.136,4.292,46.274,6.676l.143.023c15.127,2.383,30.769,4.846,46.122,6.663a391.327,391.327,0,0,0,45.952,3.026h1.171c10.611,0,21.454-.563,33.149-1.721,10.416-1.031,21.274-2.514,33.192-4.534,22.138-3.752,44.631-8.83,66.383-13.741,26.28-5.933,53.452-12.068,80.019-15.857,12.875-1.826,26.144-3.207,39.438-4.1,12.89-.871,26.177-1.312,39.493-1.312,12.048,0,24.46.361,36.892,1.073,12.016.688,24.413,1.725,36.844,3.081l-.668.137c-16.135,3.436-33.823,8-54.073,13.942-18.062,5.3-36.459,11.2-54.251,16.9l-.013,0c-27.078,8.674-55.078,17.643-82.6,24.76-14.814,3.831-28.307,6.835-41.249,9.181A384.79,384.79,0,0,1,1372,83.33C1363.931,83.907,1355.575,84.2,1347.163,84.2Z" transform="translate(0 940.288)" fill="rgba(143,188,148,0.64)"/>
  </g>
</svg>
